<svg width="20" height="22" viewBox="0 0 20 22" fill="none" xmlns="http://www.w3.org/2000/svg">
<path d="M7.0459 3.25H12.9521V1.60938C12.9521 1.07617 13.3623 0.625 13.9365 0.625C14.4697 0.625 14.9209 1.07617 14.9209 1.60938V3.25H16.5615C17.9971 3.25 19.1865 4.43945 19.1865 5.875V19C19.1865 20.4766 17.9971 21.625 16.5615 21.625H3.43652C1.95996 21.625 0.811523 20.4766 0.811523 19V5.875C0.811523 4.43945 1.95996 3.25 3.43652 3.25H5.07715V1.60938C5.07715 1.07617 5.4873 0.625 6.06152 0.625C6.59473 0.625 7.0459 1.07617 7.0459 1.60938V3.25ZM2.78027 10.7969H6.06152V8.5H2.78027V10.7969ZM2.78027 12.7656V15.3906H6.06152V12.7656H2.78027ZM8.03027 12.7656V15.3906H11.9678V12.7656H8.03027ZM13.9365 12.7656V15.3906H17.2178V12.7656H13.9365ZM17.2178 8.5H13.9365V10.7969H17.2178V8.5ZM17.2178 17.3594H13.9365V19.6562H16.5615C16.8896 19.6562 17.2178 19.3691 17.2178 19V17.3594ZM11.9678 17.3594H8.03027V19.6562H11.9678V17.3594ZM6.06152 17.3594H2.78027V19C2.78027 19.3691 3.06738 19.6562 3.43652 19.6562H6.06152V17.3594ZM11.9678 8.5H8.03027V10.7969H11.9678V8.5Z" fill="#DC3636"/>
</svg>
