<svg width="39" height="41" viewBox="0 0 39 41" fill="none" xmlns="http://www.w3.org/2000/svg">
<path d="M37.5622 13.8912C40.1245 22.1727 37.316 31.2444 30.6036 36.3637C23.8911 41.481 14.8001 41.481 8.0877 36.3637C1.3743 31.2455 -1.43514 22.1727 1.13 13.8912C3.69417 5.60971 11.0481 0.00293 19.3456 0.00293C27.6422 0.00293 34.9971 5.60971 37.5622 13.8912ZM19.3456 1.81466C11.7955 1.81466 5.10418 6.91678 2.7718 14.4514C0.438462 21.9869 2.99398 30.2422 9.1024 34.8982C15.2108 39.5562 23.4814 39.5562 29.5898 34.8982C35.6973 30.2422 38.2538 21.9869 35.9214 14.4514C33.5861 6.91678 26.8968 1.81466 19.3456 1.81466Z" fill="#F39B4E"/>
</svg>
