<svg width="24" height="24" viewBox="0 0 24 24" fill="none" xmlns="http://www.w3.org/2000/svg">
<circle cx="12" cy="12" r="12" fill="#434343"/>
<circle cx="12" cy="12" r="12" fill="white" fill-opacity="0.5"/>
<path d="M16.1666 7.83334H13.6666C13.2083 7.83334 12.8333 8.20834 12.8333 8.66667C12.8333 9.125 13.2083 9.5 13.6666 9.5H16.1666C17.5416 9.5 18.6666 10.625 18.6666 12C18.6666 13.375 17.5416 14.5 16.1666 14.5H13.6666C13.2083 14.5 12.8333 14.875 12.8333 15.3333C12.8333 15.7917 13.2083 16.1667 13.6666 16.1667H16.1666C18.4666 16.1667 20.3333 14.3 20.3333 12C20.3333 9.7 18.4666 7.83334 16.1666 7.83334ZM8.66663 12C8.66663 12.4583 9.04163 12.8333 9.49996 12.8333H14.5C14.9583 12.8333 15.3333 12.4583 15.3333 12C15.3333 11.5417 14.9583 11.1667 14.5 11.1667H9.49996C9.04163 11.1667 8.66663 11.5417 8.66663 12ZM10.3333 14.5H7.83329C6.45829 14.5 5.33329 13.375 5.33329 12C5.33329 10.625 6.45829 9.5 7.83329 9.5H10.3333C10.7916 9.5 11.1666 9.125 11.1666 8.66667C11.1666 8.20834 10.7916 7.83334 10.3333 7.83334H7.83329C5.53329 7.83334 3.66663 9.7 3.66663 12C3.66663 14.3 5.53329 16.1667 7.83329 16.1667H10.3333C10.7916 16.1667 11.1666 15.7917 11.1666 15.3333C11.1666 14.875 10.7916 14.5 10.3333 14.5Z" fill="white"/>
</svg>
