<svg width="41" height="43" viewBox="0 0 41 43" fill="none" xmlns="http://www.w3.org/2000/svg">
<path d="M39.993 14.5404C42.6764 23.2096 39.7362 32.7065 32.7112 38.0651C25.6823 43.4236 16.1671 43.4236 9.14017 38.0651C2.11321 32.7065 -0.827993 23.2096 1.85545 14.5404C4.53985 5.87122 12.2382 0.00292989 20.9242 0.00292989C29.6103 0.00292989 37.3096 5.87122 39.993 14.5404ZM20.9242 1.89847C13.0211 1.89847 6.01622 7.23988 3.5742 15.1268C1.13217 23.0148 3.80695 31.6558 10.202 36.5319C16.5951 41.408 25.2524 41.408 31.6484 36.5319C38.0405 31.6568 40.7172 23.0148 38.2752 15.1268C35.8322 7.23887 28.8274 1.89847 20.9242 1.89847Z" fill="#F39B4E"/>
<path fill-rule="evenodd" clip-rule="evenodd" d="M17.9541 25.6078C15.9343 25.5341 14.6725 24.012 14.3377 22.7756C14.8994 22.8886 15.4534 22.8664 16.0036 22.7241C16.019 22.7211 16.0315 22.71 16.0603 22.6969C14.9648 22.4294 14.1213 21.8157 13.5356 20.8255C13.147 20.1674 12.9604 19.4478 12.9662 18.6575C13.5115 18.9623 14.0819 19.1339 14.6955 19.151C13.8741 18.5293 13.3211 17.7168 13.096 16.6761C12.8729 15.6395 13.0172 14.6544 13.5135 13.7228C15.6179 16.3228 18.2812 17.7511 21.5292 17.9852C21.5071 17.8227 21.4821 17.6824 21.4676 17.5381C21.359 16.5782 21.5407 15.6839 22.0361 14.8704C22.6536 13.853 23.5384 13.2201 24.6714 13.0263C25.9776 12.8022 27.1192 13.1929 28.0753 14.1639C28.1368 14.2295 28.1907 14.2496 28.2811 14.2295C29.0794 14.0458 29.8325 13.744 30.5414 13.316C30.5587 13.3059 30.576 13.2968 30.5943 13.2887C30.5981 13.2877 30.6039 13.2877 30.6202 13.2877C30.3134 14.2355 29.7517 14.9673 28.9544 15.5073C29.7094 15.4195 30.4279 15.2105 31.1204 14.8956C31.1271 14.9027 31.13 14.9098 31.1367 14.9148C30.9867 15.1187 30.8424 15.3276 30.6895 15.5265C30.2778 16.0594 29.8036 16.5287 29.2766 16.9355C29.2323 16.9698 29.2093 17.0021 29.2131 17.0637C29.2333 17.6693 29.2112 18.2739 29.141 18.8735C28.9909 20.1412 28.6543 21.3504 28.1388 22.5061C27.6059 23.6992 26.9124 24.7751 26.0382 25.7219C24.556 27.3278 22.7728 28.3644 20.6953 28.8468C19.9826 29.0114 19.2603 29.0931 18.5303 29.1163C16.2893 29.1839 14.2175 28.5995 12.3102 27.3641C12.2862 27.349 12.2612 27.3318 12.2189 27.3025C13.575 27.4549 14.8658 27.2733 16.1065 26.7403C16.7653 26.4547 17.3761 26.0822 17.9541 25.6078Z" fill="white"/>
</svg>
