<svg width="40" height="42" viewBox="0 0 40 42" fill="none" xmlns="http://www.w3.org/2000/svg">
<path d="M38.9105 14.2152C41.5343 22.6905 38.6595 31.9752 31.7912 37.2126C24.9201 42.45 15.6184 42.45 8.74823 37.2126C1.87805 31.9752 -0.996795 22.6905 1.62798 14.2152C4.25179 5.74093 11.7779 0.00292933 20.2688 0.00292933C28.7606 0.00393866 36.2867 5.74093 38.9105 14.2152ZM20.2688 1.85605C12.5426 1.85605 5.6945 7.07727 3.30729 14.7875C0.920087 22.4987 3.53524 30.9467 9.78603 35.7117C16.0378 40.4788 24.5007 40.4788 30.7534 35.7117C37.0032 30.9467 39.6184 22.4977 37.2312 14.7875C34.844 7.07727 27.995 1.85605 20.2688 1.85605Z" fill="#F39B4E"/>
<path fill-rule="evenodd" clip-rule="evenodd" d="M22.932 14.6591C23.4658 14.6389 23.9948 14.6541 24.5286 14.6541C24.594 14.6541 24.6595 14.6541 24.7489 14.6541V11.7501C24.4652 11.7219 24.168 11.6785 23.8708 11.6633C23.3254 11.6381 22.7791 11.6098 22.2328 11.623C21.3989 11.6411 20.6102 11.8541 19.9216 12.3719C19.1319 12.9684 18.6982 13.8062 18.5327 14.7944C18.4644 15.2011 18.4471 15.6251 18.4366 16.0389C18.4212 16.691 18.4346 17.341 18.4346 17.993V18.2373H15.7887V21.4794H18.4192V29.6279H21.6346V21.4925H24.2584C24.393 20.4135 24.5229 19.3466 24.6604 18.2353C24.4498 18.2353 24.2613 18.2343 24.0708 18.2353C23.3254 18.2383 21.6134 18.2353 21.6134 18.2353C21.6134 18.2353 21.6192 16.6284 21.6384 15.9309C21.6644 14.9771 22.204 14.6864 22.932 14.6591Z" fill="white"/>
</svg>
